HIERARCHY
ROOT SpineBase
{
  OFFSET 0.000000 0.000000 0.000000
  CHANNELS 6 Xposition Yposition Zposition Zrotation Xrotation Yrotation
  JOINT SpineMid
  {
    OFFSET 0.000000 29.169023 0.000000
    CHANNELS 3 Zrotation Xrotation Yrotation
    JOINT SpineShoulder
    {
      OFFSET 0.065371 21.616126 -0.684724
      CHANNELS 3 Zrotation Xrotation Yrotation
      JOINT Neck
      {
        OFFSET 0.043212 7.132791 -0.535573
        CHANNELS 3 Zrotation Xrotation Yrotation
        JOINT Head
        {
          OFFSET 4.617635 12.296770 2.051871
          CHANNELS 3 Zrotation Xrotation Yrotation
          End Site
          {
            OFFSET 0 0 0
          }
        }
      }
      JOINT ShoulderLeft
      {
        OFFSET -11.010936 -2.957500 -11.778707
        CHANNELS 3 Zrotation Xrotation Yrotation
        JOINT ElbowLeft
        {
          OFFSET -5.035676 -19.197782 -5.068877
          CHANNELS 3 Zrotation Xrotation Yrotation
          JOINT WristLeft
          {
            OFFSET 3.543250 -21.446205 -3.808958
            CHANNELS 3 Zrotation Xrotation Yrotation
            JOINT HandLeft
            {
              OFFSET 1.796519 -8.174468 -0.746026
              CHANNELS 3 Zrotation Xrotation Yrotation
              JOINT HandTipLeft
              {
                OFFSET 1.362811 -6.163911 -2.373050
                CHANNELS 3 Zrotation Xrotation Yrotation
                End Site
                {
                  OFFSET 0 0 0
                }
              }
              JOINT ThumbLeft
              {
                OFFSET 2.942395 -2.188474 -2.304538
                CHANNELS 3 Zrotation Xrotation Yrotation
                End Site
                {
                  OFFSET 0 0 0
                }
              }
            }
          }
        }
      }
      JOINT ShoulderRight
      {
        OFFSET 12.057276 -3.323335 12.687540
        CHANNELS 3 Zrotation Xrotation Yrotation
        JOINT ElbowRight
        {
          OFFSET 2.592099 -23.997983 4.260987
          CHANNELS 3 Zrotation Xrotation Yrotation
          JOINT WristRight
          {
            OFFSET -0.236282 -23.520868 -8.618335
            CHANNELS 3 Zrotation Xrotation Yrotation
            JOINT HandRight
            {
              OFFSET -1.558915 -6.830288 -3.139558
              CHANNELS 3 Zrotation Xrotation Yrotation
              JOINT HandTipRight
              {
                OFFSET -1.163513 -6.707159 -0.664013
                CHANNELS 3 Zrotation Xrotation Yrotation
                End Site
                {
                  OFFSET 0 0 0
                }
              }
              JOINT ThumbRight
              {
                OFFSET 1.566733 -2.237891 -0.188386
                CHANNELS 3 Zrotation Xrotation Yrotation
                End Site
                {
                  OFFSET 0 0 0
                }
              }
            }
          }
        }
      }
    }
  }
  JOINT HipLeft
  {
    OFFSET -3.658488 1.250820 -8.058430
    CHANNELS 3 Zrotation Xrotation Yrotation
    JOINT KneeLeft
    {
      OFFSET -14.221710 -35.009561 -0.775234
      CHANNELS 3 Zrotation Xrotation Yrotation
      JOINT AnkleLeft
      {
        OFFSET -6.140322 -31.270138 1.189505
        CHANNELS 3 Zrotation Xrotation Yrotation
        JOINT FootLeft
        {
          OFFSET -0.982296 -6.546808 -8.058327
          CHANNELS 3 Zrotation Xrotation Yrotation
          End Site
          {
            OFFSET 0 0 0
          }
        }
      }
    }
  }
  JOINT HipRight
  {
    OFFSET 4.092533 0.038722 1.210009
    CHANNELS 3 Zrotation Xrotation Yrotation
    JOINT KneeRight
    {
      OFFSET -3.564585 -34.674485 4.828852
      CHANNELS 3 Zrotation Xrotation Yrotation
      JOINT AnkleRight
      {
        OFFSET -0.702455 -32.032355 4.312435
        CHANNELS 3 Zrotation Xrotation Yrotation
        JOINT FootRight
        {
          OFFSET 5.483310 -6.190284 -5.291416
          CHANNELS 3 Zrotation Xrotation Yrotation
          End Site
          {
            OFFSET 0 0 0
          }
        }
      }
    }
  }
}
MOTION
Frames: 13
Frame Time: 0.033333
-22.770907 73.313118 321.685485 -5.713877 -0.047434 -43.248670 0.437474 0.180723 43.070632 0.180408 -0.146813 -0.220627 5.351011 -2.062527 1.253285 0.000000 0.000000 0.000000 0.101435 -3.852375 2.639441 0.231200 5.524583 -1.084782 -6.670694 1.090504 0.522355 12.022341 4.430312 0.083805 0.000000 0.000000 0.000000 0.000000 0.000000 0.000000 -2.272277 5.048610 -0.088849 5.349266 -5.516070 1.681308 -3.984108 7.492610 0.920153 7.312596 -7.395376 -0.756861 0.000000 0.000000 0.000000 0.000000 0.000000 0.000000 -2.576314 6.090383 41.297064 -3.335934 -4.463851 1.336633 3.791657 -2.605828 4.598259 0.000000 0.000000 0.000000 7.011898 5.999684 43.389155 -1.029974 -0.966511 -0.145561 -18.335543 -1.849906 12.051391 0.000000 0.000000 0.000000
-23.422128 73.181661 321.214700 -4.361383 -0.782970 -43.948271 0.484973 0.104908 43.783579 0.186661 -0.142682 -0.159175 5.234973 -1.180470 0.891696 0.000000 0.000000 0.000000 -0.553521 -4.016690 2.642597 -0.163404 6.079314 -1.265887 -7.279633 2.593241 1.102884 13.101195 5.143650 0.058503 0.000000 0.000000 0.000000 0.000000 0.000000 0.000000 -2.187008 4.986305 -0.087482 4.707820 -4.812838 1.217274 -3.434738 7.288328 0.585713 7.053407 -7.897035 -0.132774 0.000000 0.000000 0.000000 0.000000 0.000000 0.000000 -5.087733 5.489250 41.855182 -3.208779 -5.042632 1.438915 4.508706 -2.232751 4.551548 0.000000 0.000000 0.000000 6.068890 5.874342 44.196276 -1.153605 -1.071469 -0.175796 -14.710195 3.209425 12.380801 0.000000 0.000000 0.000000
-24.276923 72.999630 320.586838 -2.927933 -1.604534 -44.662884 0.449291 0.044187 44.533661 0.123649 -0.120441 -0.100530 5.446462 -0.206905 0.423157 0.000000 0.000000 0.000000 -1.021686 -4.153695 2.618227 -1.223614 6.872422 -1.189881 -6.752855 4.719664 1.729905 12.513118 0.587160 -0.565912 0.000000 0.000000 0.000000 0.000000 0.000000 0.000000 -2.271769 5.474444 -0.025126 4.567838 -5.002414 0.672717 -2.590840 6.201313 0.311018 6.037140 -7.011248 0.327807 0.000000 0.000000 0.000000 0.000000 0.000000 0.000000 -7.255650 5.080207 42.442084 -3.368102 -5.867331 1.553384 5.821585 -1.811426 3.510356 0.000000 0.000000 0.000000 5.268886 5.839092 45.058556 -1.501390 -1.166952 -0.241214 -9.929962 8.972777 11.613815 0.000000 0.000000 0.000000
-25.441106 72.844514 319.802058 -1.390932 -2.431189 -45.030831 0.445475 0.044464 44.965520 0.120589 -0.107329 -0.031001 5.385895 0.643503 -0.032380 0.000000 0.000000 0.000000 -1.320904 -4.251910 2.480365 -2.539102 7.599708 -1.007703 -6.050406 5.161484 1.776525 10.150354 -1.677053 -0.474008 0.000000 0.000000 0.000000 0.000000 0.000000 0.000000 -2.496497 6.342801 0.078587 4.601235 -5.771759 0.016796 -2.412974 5.578998 0.309253 5.006520 -7.255882 0.909606 0.000000 0.000000 0.000000 0.000000 0.000000 0.000000 -9.104957 5.072424 42.636141 -3.654912 -7.322893 1.799162 7.198455 -1.359516 1.779563 0.000000 0.000000 0.000000 4.892467 5.842871 45.644081 -2.292607 -1.036295 -0.385217 -2.976266 16.857335 9.959372 0.000000 0.000000 0.000000
-26.793124 72.737360 318.947627 0.280918 -3.307760 -45.145067 0.402892 0.027198 45.174269 0.065440 -0.093454 0.040052 5.635368 1.326591 -0.506499 0.000000 0.000000 0.000000 -1.867096 -4.025766 2.324095 -4.152604 8.259608 -0.610028 -3.451894 4.272406 1.129805 7.211445 -5.579209 -1.126658 0.000000 0.000000 0.000000 0.000000 0.000000 0.000000 -2.391296 7.329237 0.205225 4.729457 -7.367478 -0.811339 -3.336728 6.102701 0.740781 4.528432 -6.216290 1.021410 0.000000 0.000000 0.000000 0.000000 0.000000 0.000000 -10.671371 5.401012 42.569295 -4.222033 -9.090650 2.100288 7.917869 -2.318195 0.695041 0.000000 0.000000 0.000000 4.537406 5.934871 46.015773 -3.306450 -1.010532 -0.539795 1.275760 20.797127 7.731275 0.000000 0.000000 0.000000
-28.262730 72.629411 317.987591 1.960671 -4.080573 -44.550071 0.341144 0.025383 44.697579 0.040707 -0.064583 0.112166 7.157182 1.142421 -0.959580 0.000000 0.000000 0.000000 -2.618886 -3.348476 2.053076 -5.600555 7.891411 -0.243720 -0.870347 4.489881 0.821294 4.484029 -9.918806 -1.956607 0.000000 0.000000 0.000000 0.000000 0.000000 0.000000 -1.756825 7.859241 0.302166 4.236866 -8.510724 -1.700669 -4.420347 6.104584 1.361040 3.973919 -5.920689 1.180846 0.000000 0.000000 0.000000 0.000000 0.000000 0.000000 -11.608100 6.059523 41.827104 -5.248116 -10.737867 2.352791 7.428703 -2.614125 0.891441 0.000000 0.000000 0.000000 4.592054 5.884095 45.733440 -4.545983 -0.822530 -0.727676 3.225610 22.040384 5.833551 0.000000 0.000000 0.000000
-29.787465 72.489574 316.963658 3.760204 -4.787371 -43.234540 0.308519 0.054487 43.528434 0.009985 -0.033482 0.190330 8.275333 1.291551 -1.569609 0.000000 0.000000 0.000000 -3.483463 -2.528454 1.705031 -7.321092 7.476746 0.275877 0.927166 3.755345 0.335239 2.143031 -11.929604 -2.142363 0.000000 0.000000 0.000000 0.000000 0.000000 0.000000 -0.804887 7.532673 0.330992 3.687649 -9.160760 -2.736831 -6.439606 6.552593 2.412617 4.462987 -5.819512 1.170079 0.000000 0.000000 0.000000 0.000000 0.000000 0.000000 -12.112214 6.847812 40.411235 -6.460049 -12.257459 2.579549 6.535857 -2.251921 1.317474 0.000000 0.000000 0.000000 4.971398 5.515753 44.818117 -5.980894 -0.247742 -0.953728 2.722238 21.028164 4.843812 0.000000 0.000000 0.000000
-31.218008 72.337249 315.953116 5.657439 -5.378398 -40.771648 0.177401 0.086509 41.232233 -0.071427 0.025965 0.265396 11.032041 0.605950 -2.231137 0.000000 0.000000 0.000000 -4.324622 -1.198192 1.147446 -8.620695 6.211730 0.722936 0.568566 4.298735 0.496118 2.546076 -13.748243 -2.620761 0.000000 0.000000 0.000000 0.000000 0.000000 0.000000 0.395583 6.689326 0.376277 2.852704 -9.327680 -3.792370 -8.213037 5.754509 3.646379 4.899937 -4.143730 0.736644 0.000000 0.000000 0.000000 0.000000 0.000000 0.000000 -12.217945 7.788803 37.871411 -8.132029 -13.344971 2.667075 6.262477 -1.764063 1.293819 0.000000 0.000000 0.000000 5.280247 4.781667 42.807912 -7.244788 0.111174 -1.122591 -0.384982 17.743625 4.528686 0.000000 0.000000 0.000000
-32.485428 72.137549 314.976123 7.587947 -5.893468 -38.179851 0.282616 0.199276 38.822702 0.007341 0.019949 0.358991 13.944088 0.081872 -3.126151 0.000000 0.000000 0.000000 -5.664615 0.547620 0.502894 -9.800665 4.969484 1.230290 -0.126201 4.510113 0.638012 2.703303 -13.907410 -2.523122 0.000000 0.000000 0.000000 0.000000 0.000000 0.000000 2.192671 4.133691 0.476172 1.051761 -7.886795 -5.014892 -10.522734 6.841382 4.750296 6.151281 -3.255259 0.430933 0.000000 0.000000 0.000000 0.000000 0.000000 0.000000 -12.176503 8.450531 35.273710 -9.655427 -14.031337 2.694112 5.924710 -1.073719 1.264861 0.000000 0.000000 0.000000 5.276621 3.883545 40.691970 -8.195973 0.248291 -1.226061 -7.253539 10.798765 4.692963 0.000000 0.000000 0.000000
-33.391945 71.893054 314.151987 9.609449 -6.419316 -35.486339 0.718347 0.398997 36.335850 0.105688 0.000045 0.471852 17.022611 -0.448007 -4.189758 0.000000 0.000000 0.000000 -7.144468 2.840879 -0.368073 -11.238850 3.285287 1.821728 -2.016454 5.585130 1.217132 3.426974 -14.193170 -2.360215 0.000000 0.000000 0.000000 0.000000 0.000000 0.000000 3.244096 1.460735 0.673824 -0.456620 -4.668651 -6.301119 -19.124434 10.311094 8.361761 10.729038 -8.985083 -0.310855 0.000000 0.000000 0.000000 0.000000 0.000000 0.000000 -12.592698 8.805769 32.624815 -10.717310 -14.545593 2.720297 5.394889 0.080306 1.519597 0.000000 0.000000 0.000000 4.598283 2.725144 38.475652 -8.535562 0.350421 -1.267358 -11.938687 5.204134 3.338841 0.000000 0.000000 0.000000
-33.838948 71.702955 313.565165 11.668595 -6.975271 -32.864579 1.035309 0.506689 33.945851 0.046528 0.036921 0.571465 22.012212 -1.474473 -5.442327 0.000000 0.000000 0.000000 -9.218870 5.599968 -1.082056 -11.939190 1.237124 2.222044 -2.812476 6.087459 1.484372 5.263821 -12.114406 -1.873033 0.000000 0.000000 0.000000 0.000000 0.000000 0.000000 4.773196 -1.983801 1.098238 -2.954562 -2.201769 -7.103281 -15.330023 7.137798 7.326036 8.375714 -2.593686 -0.470511 0.000000 0.000000 0.000000 0.000000 0.000000 0.000000 -13.705697 8.924097 30.098211 -11.157407 -14.969526 2.769220 5.092898 1.310629 1.576268 0.000000 0.000000 0.000000 3.216234 1.586289 36.274541 -8.474688 0.313054 -1.265027 -15.757743 -0.012803 1.113001 0.000000 0.000000 0.000000
-33.955761 71.623866 313.125661 14.005874 -7.587905 -30.835648 1.581808 0.641099 32.203601 0.153712 -0.012175 0.705288 25.407755 -2.251408 -6.647613 0.000000 0.000000 0.000000 -11.268481 7.853783 -1.814711 -12.609013 0.246376 2.642746 -5.385394 7.284117 2.295701 8.745790 -9.938707 -1.443211 0.000000 0.000000 0.000000 0.000000 0.000000 0.000000 5.227430 -3.066274 1.445827 -5.185574 -2.274647 -7.664695 -11.195506 1.610958 7.274288 4.788158 6.148615 -1.353299 0.000000 0.000000 0.000000 0.000000 0.000000 0.000000 -15.637754 8.620707 28.254270 -11.084545 -15.197859 2.816063 4.693534 2.037322 1.866161 0.000000 0.000000 0.000000 0.943154 0.516901 34.613807 -7.947068 0.043671 -1.211810 -18.509437 -3.481197 -0.780349 0.000000 0.000000 0.000000
-33.908304 71.583908 312.787877 16.114861 -8.145577 -28.985308 2.345803 0.687084 30.650050 0.228375 -0.040273 0.834019 28.066102 -2.652477 -8.013897 0.000000 0.000000 0.000000 -13.041570 9.481519 -2.394099 -13.677712 0.539154 3.210779 -5.627480 7.678842 2.476779 9.004661 -10.878276 -1.587743 0.000000 0.000000 0.000000 0.000000 0.000000 0.000000 6.190152 -4.611584 1.937324 -8.236367 -0.264818 -8.102015 -8.219184 -2.932900 7.459026 2.336963 10.294066 -1.294961 0.000000 0.000000 0.000000 0.000000 0.000000 0.000000 -17.731751 8.445711 26.584371 -10.714607 -15.439872 2.894897 4.314638 2.052220 2.254361 0.000000 0.000000 0.000000 -1.341119 -0.400827 33.072498 -7.177714 -0.041636 -1.159741 -18.753068 -3.947945 -1.815961 0.000000 0.000000 0.000000
